<?xml version="1.0" encoding="UTF-8"?>
<svg id="Layer_1" xmlns="http://www.w3.org/2000/svg" version="1.1" viewBox="0 0 40 40">
  <!-- Generator: Adobe Illustrator 30.0.0, SVG Export Plug-In . SVG Version: 2.1.1 Build 123)  -->
  <path d="M25.69,17.59l2.2,4.12c.05.16.01.36-.01.52,0,.03,0,.11-.05.09l-.94-.73,1.65,4.64c.68,2.08.34,6.33-2.29,6.89-2.19.46-3.71-.52-4.53-2.51-.17-.41-.25-.81-.39-1.23,0-.03-.02-.1-.05-.1-.27,1.48-.89,3.07-2.03,4.09-.93.83-1.9,1.07-3.1.67-4.07-1.36-2.67-6.72-2.42-9.91.02-.25.03-.51.05-.76,0-.14-.03-.14-.14-.07-.49.3-1.04,2.39-1.16,2.98-.39,1.94-.38,5.88-1.83,7.26-.51.49-1.32.68-1.98.41-1.32-.55-1.75-2.58-1.89-3.85-.19-1.7-.09-3.43.07-5.12l.51-.36v1.2c.09,1.48.22,3.02.71,4.43.24.68.82,2.06,1.78,1.49.58-.35,1.06-1.99,1.21-2.65.69-2.94.55-6.32,3.18-8.36.17-.13.55-.41.75-.47.04-.01.03,0,.04.03.06.44,0,1.13,0,1.6,0,.06.03.11.03.16.02,2.34-.84,4.53-.5,6.92.18,1.28,1.14,2.72,2.55,2.78,1.29.05,2.2-.71,2.8-1.77,1.27-2.25.56-3.97.15-6.3-.2-1.11-.46-2.27-.31-3.39.07-.57.19-1.14.28-1.71l.07.02c.66.84,1.07,1.76,1.28,2.81.43,2.17.5,4.66,1.24,6.73.52,1.45,2,3.45,3.79,2.55,1.61-.81.75-2.82.39-4.11-.62-2.21-.87-4.55-1.81-6.65.26-.75.41-1.58.68-2.31.01-.03,0-.04.05-.03Z"/>
  <path d="M31.97,12l-.06.04-1.24-1.21v.06c.73,5.45,1.53,10.9,2.27,16.35.23,1.68.55,3.32.29,5.01-.12.77-.37,1.56-.88,2.16-.08-.94-.16-1.88-.27-2.82-.57-5.17-1.47-10.29-2.23-15.43-.35-2.34-.54-4.97-1.21-7.22-.06-.22-.23-.57-.25-.77-.05-.57.53-2.01.82-2.54.01-.03,0-.06.05-.05l2.7,5.46v.95Z"/>
  <path d="M20.17,17.47s-.05.01-.07.04c-.06.1-.11.25-.19.36-.33.53-.87.86-1.5.6-1.01-.42-.65-1.75-.79-2.6l-.48.79s-.04,0-.05-.04c-.02-.13-.04-.32-.02-.45.02-.17.38-.87.49-1.06.23-.4.52-.77.94-.98.03.04-.1.58-.12.68-.04.29-.03.57-.05.85-.03.37-.1.85-.07,1.21.1,1.1,1.5.47,1.55-.47.01-.2-.14-1.16-.23-1.32-.04-.08-.14-.11-.13-.22.01-.15.31-.84.41-.98.01-.02.02-.05.05-.04.19.18.29.45.35.7.15.6.07,2.15.59,2.5.28.19.63.03.74-.28.15-.43.1-1.01-.08-1.43-.07-.17-.25-.37-.25-.54s.11-.48.18-.65c.04-.09.22-.47.32-.46.04.01.05.05.06.08.09.18.18.56.23.76.22.85.44,2.31.05,3.12-.43.91-1.64.7-1.95-.18Z"/>
  <path d="M25.12,10.09c.16,1.02-.91,1.42-1.68,1.71-1.02.38-2.07.7-3.1,1.07-.89.32-1.77.68-2.66,1-1.59.57-3.31.97-4.61,2.12-.06-.05.07-.43.09-.51.29-.8,1.01-1.11,1.75-1.39.67-.25,1.37-.45,2.05-.69,1.85-.65,3.7-1.28,5.55-1.93.68-.24,1.87-.64,2.38-1.14.03-.03.19-.27.23-.24Z"/>
  <path d="M17.81,5.78s.36.13.42.16c.44.24.89.68,1.16,1.1.91,1.44.51,3.21-.14,4.66-.04-.03-.03-.06-.03-.1.03-.8.06-1.51-.11-2.3s-.54-1.57-1.3-1.92v-1.61Z"/>
  <path d="M8.08,20.68l1.23-.52c.51-.27,1.04-.55,1.47-.93.09-.08.62-.6.6-.67-.24-.18-.43-.31-.4-.65.02-.22.2-.37.23-.58.03-.22-.02-.81.35-.81.46,0,1.06.4,1.32.78.52.76.05,1.57-.85,1.49-.9,1.25-2.44,1.86-3.95,1.89ZM11.79,18.11l.24-.75c-.08-.12-.25-.14-.34,0-.16.23-.28.69.1.75ZM12.01,18.23h.35c.05,0,.12-.11.14-.15.12-.26.09-.55-.22-.64l-.26.79Z"/>
</svg>