<?xml version="1.0" encoding="UTF-8"?>
<svg id="Layer_1" xmlns="http://www.w3.org/2000/svg" version="1.1" viewBox="0 0 800 800">
  <!-- Generator: Adobe Illustrator 29.8.3, SVG Export Plug-In . SVG Version: 2.1.1 Build 3)  -->
  <defs>
    <style>
      .st0 {
        fill: #fff;
      }
    </style>
  </defs>
  <path class="st0" d="M578.33,183.48c-21.81,0-39.49,17.68-39.49,39.49s17.68,39.49,39.49,39.49,39.49-17.68,39.49-39.49-17.68-39.49-39.49-39.49Z"/>
  <path class="st0" d="M402.77,234.12c-91.47,0-165.89,74.41-165.89,165.88s74.42,165.88,165.89,165.88,165.88-74.42,165.88-165.88-74.42-165.88-165.88-165.88ZM402.77,506.26c-58.59,0-106.26-47.66-106.26-106.26s47.67-106.26,106.26-106.26,106.25,47.66,106.25,106.26-47.66,106.26-106.25,106.26Z"/>
  <path class="st0" d="M534.46,736.79h-268.93c-111.56,0-202.32-90.76-202.32-202.32v-268.94c0-111.57,90.76-202.32,202.32-202.32h268.93c111.56,0,202.34,90.76,202.34,202.32v268.94c0,111.56-90.77,202.32-202.34,202.32ZM265.53,126.58c-76.62,0-138.96,62.33-138.96,138.95v268.94c0,76.62,62.33,138.96,138.96,138.96h268.93c76.62,0,138.96-62.33,138.96-138.96v-268.94c0-76.63-62.34-138.95-138.96-138.95h-268.93Z"/>
</svg>