<?xml version="1.0" encoding="UTF-8"?>
<svg id="Layer_1" xmlns="http://www.w3.org/2000/svg" version="1.1" viewBox="0 0 396.55 237.93">
  <!-- Generator: Adobe Illustrator 30.0.0, SVG Export Plug-In . SVG Version: 2.1.1 Build 123)  -->
  <defs>
    <style>
      .st0 {
        fill: #fbfcfc;
        opacity: .49;
      }
    </style>
  </defs>
  <path class="st0" d="M10.87,215.15c-19.08-18.94-7.22-54.15,11.3-69.38,15.83-13.02,37.39-17.24,57.03-11.14,3.36,1.04,11.55,6.33,13.77,4.72.66-.48,4.91-10.8,6.47-13.15,10.64-15.96,29.39-24.03,47.88-26.67,7.5-116.94,171.5-118.64,181.9-1.39,16.47,3.8,28.61,5.71,41.94,16.92,42.85,36.03,26.45,102.78-30.31,109.52-70.67.69-141.35-.35-212.02.1-30.59.19-63.4,3.81-94.26,1.41-8.74-.68-17.49-4.78-23.71-10.95Z"/>
</svg>