<?xml version="1.0" encoding="UTF-8"?>
<svg xmlns="http://www.w3.org/2000/svg" viewBox="0 0 396.55 237.93">
  <path fill="#FBFCFC" fill-opacity="0.49" d="M300.65,186.21c11.33-11.25,4.29-32.16-6.71-41.21-9.4-7.73-22.21-10.24-33.87-6.61-1.99.62-6.86,3.76-8.18,2.81-.39-.29-2.91-6.41-3.85-7.81-6.32-9.48-17.46-14.27-28.44-15.84-4.45-69.46-101.86-70.46-108.04-.82-9.78,2.26-16.99,3.39-24.91,10.05-25.45,21.4-15.71,61.04,18,65.05,41.97.41,83.95-.21,125.93.06,18.17.12,37.66,2.26,55.98.84,5.19-.4,10.39-2.84,14.08-6.51Z"/>
</svg>