<?xml version="1.0" encoding="UTF-8"?>
<svg xmlns="http://www.w3.org/2000/svg" viewBox="0 0 396.55 237.93">
  <path fill="#FBFCFC" fill-opacity="0.49" d="M247.28,56.54c3.29,3.52,6.53-.97,9.67-1.99,24.49-7.9,48.04,1.39,57.56,25.75,5.32,13.62,3.36,21.91.93,35.77,66.36-14.67,90.59,78.36,29.66,102.33-83.69,4.53-168.39.72-252.44,1.95C23.36,210.49,4.32,116.21,62.4,78.22c20.85-13.64,42.04-12.57,65.71-8.53,2.35-23.81,27.48-48.55,51.2-51.31,29.01-3.38,50.39,8.3,65.61,32.18,1.13,1.77,1.23,4.79,2.36,6Z"/>
</svg>