<?xml version="1.0" encoding="UTF-8"?>
<svg id="Layer_1" xmlns="http://www.w3.org/2000/svg" version="1.1" viewBox="0 0 396.55 237.93">
  <!-- Generator: Adobe Illustrator 30.0.0, SVG Export Plug-In . SVG Version: 2.1.1 Build 123)  -->
  <defs>
    <style>
      .st0 {
        fill: #fff;
      }
    </style>
  </defs>
  <path class="st0" d="M59.68,87.67v136.48h189.44s75.37-2.72,75.37-77.41c0-31.73-3.5-51.72-3.5-69.78,0-8.78,3.12-13.06,16.29-13.06v-3.12h-38.2c-16.87,0-35.03,14.01-35.03,38.43,0,34.63-13.58,44.81-29.2,44.81s-23.49-7.01-21.05-20.37c4.69-25.64,58.4-31.23,58.4-76.05,0-19.4-13.58-30.56-32.59-30.56H59.68s-10.86,69.26,77.41,78.09c0,0,7.47,2.04,0,6.11s-42.1,4.07-46.85,2.72c0,0,22.47,63.15,107.28,63.15,0,0-21.71,13.25-67.22-6.39-46.69-20.15-70.62-73.05-70.62-73.05Z"/>
</svg>