<?xml version="1.0" encoding="UTF-8"?>
<svg id="Layer_1" xmlns="http://www.w3.org/2000/svg" version="1.1" viewBox="0 0 1080 161.83">
  <path fill="#fff" d="M46.38,52.1v51.51c0,14.72,1.95,15.41,7.7,15.41v1.27h-16.1v-1.27c5.29,0,5.86-.69,5.86-15.06v-57.49c0-5.29-.57-5.4-5.86-5.4v-1.27h13.34l27.83,66.23v-49.56c0-14.72-1.72-15.41-7.47-15.41v-1.27h15.87v1.27c-5.4,0-5.86.69-5.86,15.06v64.62c-2.18,0-3.68.35-5.4,1.38h-.69l-29.21-70.02Z"/>
  <path fill="#fff" d="M87.66,91.42c0-20.93,9.89-30.47,22.31-30.47,9.43,0,16.79,5.63,16.79,16.33v2.07h-31.28l-.23,4.37c0,18.4,5.63,32.66,18.51,32.66,5.17,0,9.43-1.61,12.3-5.4l.92.46c-3.1,6.21-8.51,10.69-17.36,10.69-13.57,0-21.96-11.27-21.96-30.7ZM120.31,77.05c-.46-8.62-5.4-13.22-11.96-13.22-7.47,0-11.38,4.83-12.65,13.22h24.61Z"/>
  <path fill="#fff" d="M124.22,64.05v-1.27h20.24v1.27c-5.4,0-6.67.11-4.48,9.31l9.2,37.48,8.85-33.57c2.99-12.07,2.41-13.22-3.22-13.22v-1.27h14.49v1.27c-4.83,0-5.75,1.15-8.85,12.99l-11.38,43.69c-1.49.12-3.22.46-4.48,1.38h-.46l-12.42-48.75c-2.3-9.2-3.1-9.31-7.47-9.31Z"/>
  <path fill="#fff" d="M165.27,91.42c0-20.93,9.89-30.47,22.31-30.47,9.43,0,16.79,5.63,16.79,16.33v2.07h-31.28l-.23,4.37c0,18.4,5.63,32.66,18.51,32.66,5.17,0,9.43-1.61,12.3-5.4l.92.46c-3.1,6.21-8.51,10.69-17.36,10.69-13.57,0-21.96-11.27-21.96-30.7ZM197.93,77.05c-.46-8.62-5.4-13.22-11.96-13.22-7.47,0-11.38,4.83-12.65,13.22h24.61Z"/>
  <path fill="#fff" d="M211.38,113.27v-40.82c0-8.28-.46-8.39-5.75-8.39v-1.27h13.57l.34.35v8.39c2.3-7.24,7.93-10.58,13.22-10.58,3.79,0,6.32,1.15,7.82,2.76l-1.38,12.99h-.69c-1.03-6.55-4.94-9.2-9.08-9.2-4.94,0-9.89,3.56-9.89,11.96v33.81c0,5.63.46,5.75,6.55,5.75v1.27h-20.47v-1.27c5.29,0,5.75-.11,5.75-5.75Z"/>
  <path fill="#fff" d="M262.89,48.88v53.7c0,15.06.57,16.44,6.9,16.44v1.27h-15.29v-1.27c5.4,0,5.86-.92,5.86-16.1v-56.46c0-5.29-.57-5.4-5.86-5.4v-1.27h14.72l17.59,70.48,18.05-70.48h14.37v1.27c-5.29,0-5.86.12-5.86,5.4v67.15c0,5.29.57,5.4,5.86,5.4v1.27h-20.58v-1.27c6.09,0,6.67-.46,6.67-5.75V48.65l-18.74,72.21c-2.07,0-3.33.35-4.48,1.27h-.57l-18.63-73.24Z"/>
  <path fill="#fff" d="M327.17,113.27v-38.98c0-10.12-.46-10.23-5.75-10.23v-1.27h13.57l.34.35v50.13c0,5.63.46,5.75,5.75,5.75v1.27h-19.66v-1.27c5.29,0,5.75-.11,5.75-5.75ZM325.1,46c0-2.87,2.3-5.29,5.63-5.29s5.63,2.41,5.63,5.29-2.3,5.52-5.63,5.52-5.63-2.53-5.63-5.52Z"/>
  <path fill="#fff" d="M339.7,110.85l.92-.23c2.3,4.71,7.7,7.7,13.57,7.7,6.78,0,11.84-3.91,11.84-10.23,0-14.26-25.64-19.89-25.64-33.92.12-8.85,9.08-13.22,17.71-13.22,6.32,0,11.38,2.07,14.83,5.63l-2.07,11.61h-.69c-1.49-10.23-8.62-14.72-14.14-14.72s-9.43,3.22-9.43,7.13c0,12.19,26.91,18.05,26.79,35.76-.11,10.46-8.39,15.75-17.48,15.75-8.16,0-14.26-4.37-16.21-11.27Z"/>
  <path fill="#fff" d="M372.93,110.85l.92-.23c2.3,4.71,7.7,7.7,13.57,7.7,6.78,0,11.84-3.91,11.84-10.23,0-14.26-25.64-19.89-25.64-33.92.12-8.85,9.08-13.22,17.71-13.22,6.32,0,11.38,2.07,14.83,5.63l-2.07,11.61h-.69c-1.49-10.23-8.62-14.72-14.14-14.72s-9.43,3.22-9.43,7.13c0,12.19,26.91,18.05,26.79,35.76-.12,10.46-8.39,15.75-17.48,15.75-8.16,0-14.26-4.37-16.21-11.27Z"/>
  <path fill="#fff" d="M421.69,108.67c0-21.5,28.75-23.92,28.75-38.63,0-4.37-3.56-6.67-8.62-6.67-6.09,0-13.45,7.82-15.41,15.29h-.57l-2.41-11.96c5.17-3.56,11.5-5.75,18.05-5.75,7.36,0,15.29,2.99,15.29,14.03v35.99c0,7.59,1.03,8.05,5.75,8.05v1.27h-12.42l-.34-.35v-8.97c-2.41,7.7-8.28,11.15-15.18,11.15-7.47,0-12.88-4.25-12.88-13.45ZM449.51,101.31v-22.08c-5.63,8.39-19.89,13.45-19.89,27.25,0,8.05,3.22,12.42,8.39,12.42,5.75,0,11.5-3.79,11.5-17.59Z"/>
  <path fill="#fff" d="M485.5,48.88v53.7c0,15.06.57,16.44,6.9,16.44v1.27h-15.29v-1.27c5.4,0,5.86-.92,5.86-16.1v-56.46c0-5.29-.57-5.4-5.86-5.4v-1.27h14.72l17.59,70.48,18.05-70.48h14.37v1.27c-5.29,0-5.86.12-5.86,5.4v67.15c0,5.29.57,5.4,5.86,5.4v1.27h-20.58v-1.27c6.09,0,6.67-.46,6.67-5.75V48.65l-18.74,72.21c-2.07,0-3.33.35-4.48,1.27h-.57l-18.63-73.24Z"/>
  <path fill="#fff" d="M543.11,91.65c0-20.24,8.85-30.7,21.39-30.7s20.93,10.35,20.93,30.47-8.85,30.7-21.5,30.7c-11.73,0-20.81-10.35-20.81-30.47ZM577.84,99.93c0-18.63-6.78-36.33-15.98-36.33-7.36,0-11.15,7.24-11.15,19.66,0,18.74,6.9,36.33,15.98,36.33,7.47,0,11.15-7.01,11.15-19.66Z"/>
  <path fill="#fff" d="M649.35,113.27v-33.69c0-11.38-5.17-14.49-10.12-14.49-4.37,0-9.54,2.64-10.23,10.58v37.6c0,5.63.46,5.75,5.75,5.75v1.27h-19.66v-1.27c5.29,0,5.75-.11,5.75-5.75v-34.95c0-10-4.71-13.22-9.89-13.22-6.32,0-10.46,4.6-10.46,12.42v35.76c0,5.63.46,5.75,5.75,5.75v1.27h-19.66v-1.27c5.29,0,5.75-.11,5.75-5.75v-40.59c0-8.51-.46-8.62-5.75-8.62v-1.27h13.57l.35.35v7.01c2.41-6.67,8.16-9.2,14.03-9.2,5.17,0,11.61,1.84,13.8,10.23,2.41-8.05,9.43-10.23,14.6-10.23,6.55,0,14.49,2.99,14.49,18.4v33.92c0,5.63.57,5.75,5.75,5.75v1.27h-19.55v-1.27c5.17,0,5.75-.11,5.75-5.75Z"/>
  <path fill="#fff" d="M663.27,91.42c0-20.93,9.89-30.47,22.31-30.47,9.43,0,16.79,5.63,16.79,16.33v2.07h-31.27l-.23,4.37c0,18.4,5.63,32.66,18.51,32.66,5.17,0,9.43-1.61,12.3-5.4l.92.46c-3.1,6.21-8.51,10.69-17.36,10.69-13.57,0-21.96-11.27-21.96-30.7ZM695.92,77.05c-.46-8.62-5.4-13.22-11.96-13.22-7.47,0-11.38,4.83-12.65,13.22h24.61Z"/>
  <path fill="#fff" d="M739.04,113.27v-33.69c0-11.27-5.06-14.49-10.46-14.49s-11.04,3.1-11.04,12.42v35.76c0,5.63.46,5.75,5.75,5.75v1.27h-19.66v-1.27c5.29,0,5.75-.11,5.75-5.75v-40.13c0-8.97-.46-9.08-5.75-9.08v-1.27h13.57l.35.35v6.55c2.76-6.78,9.43-8.74,14.49-8.74,6.9,0,15.06,2.99,15.06,18.4v33.92c0,5.63.57,5.75,5.75,5.75v1.27h-19.66v-1.27c5.29,0,5.86-.11,5.86-5.75Z"/>
  <path fill="#fff" d="M757.79,106.02v-41.05h-5.86l-.34-.34v-1.84h3.1c7.24,0,9.54-.8,9.54-12.76v-1.38h1.72v14.14h15.98l.35.23v1.95h-16.33v39.09c0,8.85,3.8,12.76,8.74,12.76,3.68,0,7.01-1.15,9.77-5.4l.92.23c-3.56,8.97-9.31,10.46-14.14,10.46-6.32,0-13.45-2.64-13.45-16.1Z"/>
  <path fill="#fff" d="M797.69,91.65c0-20.24,8.85-30.7,21.39-30.7s20.93,10.35,20.93,30.47-8.85,30.7-21.5,30.7c-11.73,0-20.81-10.35-20.81-30.47ZM832.41,99.93c0-18.63-6.78-36.33-15.98-36.33-7.36,0-11.15,7.24-11.15,19.66,0,18.74,6.9,36.33,15.98,36.33,7.47,0,11.15-7.01,11.15-19.66Z"/>
  <path fill="#fff" d="M847.13,113.73v-48.75h-4.6l-.35-.34v-1.84h4.95v-8.97c0-16.1,8.97-21.62,18.05-21.62,5.06,0,9.31,1.61,12.19,3.91l-2.18,9.54h-.69c-1.03-5.52-6.09-11.04-10.69-11.04-3.79,0-8.62,2.53-8.62,11.73v16.44h16.44l.35.35v1.84h-16.79v48.75c0,5.17.57,5.29,6.67,5.29v1.27h-20.24v-1.27c4.95,0,5.52-.11,5.52-5.29Z"/>
  <path fill="#fff" d="M894.61,113.5V46.58c0-5.29-.57-5.52-6.21-5.52v-1.27h40.82l1.26,15.29h-1.15c-1.84-11.84-4.48-12.99-12.42-12.99h-14.03v36.91h9.66c6.55,0,9.2-2.07,9.31-10.81h1.15v24.03h-1.15c-.12-8.62-2.76-10.81-9.31-10.81h-9.66v32.08c0,5.29.69,5.52,7.59,5.52v1.27h-22.08v-1.27c5.63,0,6.21-.23,6.21-5.52Z"/>
  <path fill="#fff" d="M929.22,108.67c0-21.5,28.75-23.92,28.75-38.63,0-4.37-3.56-6.67-8.62-6.67-6.09,0-13.45,7.82-15.41,15.29h-.57l-2.41-11.96c5.17-3.56,11.5-5.75,18.05-5.75,7.36,0,15.29,2.99,15.29,14.03v35.99c0,7.59,1.03,8.05,5.75,8.05v1.27h-12.42l-.35-.35v-8.97c-2.41,7.7-8.28,11.15-15.18,11.15-7.47,0-12.88-4.25-12.88-13.45ZM957.05,101.31v-22.08c-5.63,8.39-19.89,13.45-19.89,27.25,0,8.05,3.22,12.42,8.39,12.42,5.75,0,11.5-3.79,11.5-17.59Z"/>
  <path fill="#fff" d="M976.48,113.27v-38.98c0-10.12-.46-10.23-5.75-10.23v-1.27h13.57l.35.35v50.13c0,5.63.46,5.75,5.75,5.75v1.27h-19.66v-1.27c5.29,0,5.75-.11,5.75-5.75ZM974.41,46c0-2.87,2.3-5.29,5.63-5.29s5.63,2.41,5.63,5.29-2.3,5.52-5.63,5.52-5.63-2.53-5.63-5.52Z"/>
  <path fill="#fff" d="M995.34,106.02v-41.05h-5.86l-.34-.34v-1.84h3.1c7.24,0,9.54-.8,9.54-12.76v-1.38h1.72v14.14h15.98l.35.23v1.95h-16.33v39.09c0,8.85,3.8,12.76,8.74,12.76,3.68,0,7.01-1.15,9.77-5.4l.92.23c-3.56,8.97-9.31,10.46-14.14,10.46-6.32,0-13.45-2.64-13.45-16.1Z"/>
  <path fill="#fff" d="M1056.17,113.27v-33.69c0-11.27-4.6-14.49-10.46-14.49-5.4,0-11.04,3.1-11.04,12.42v35.76c0,5.63.46,5.75,5.75,5.75v1.27h-19.66v-1.27c5.29,0,5.75-.11,5.75-5.75V44.39c0-8.97-.46-9.08-5.75-9.08v-1.26h13.57l.35.34v35.41c2.76-6.9,9.31-8.85,14.49-8.85,7.24,0,15.06,2.99,15.06,18.4v33.92c0,5.63.57,5.75,5.75,5.75v1.27h-19.66v-1.27c5.29,0,5.86-.11,5.86-5.75Z"/>
</svg>
