<?xml version="1.0" encoding="UTF-8"?>
<svg id="Layer_1" xmlns="http://www.w3.org/2000/svg" version="1.1" viewBox="0 0 40 40">
  <path d="M6.57,7.19c0-.05.13-.15.11-.25,4.02.67,8.36,1.79,11.81,4.03.49.32,1.27.65,1.24,1.31-.23,4.37.28,9.02,0,13.36,0,.11-.02.63-.25.55-3.76-2.41-8.19-3.87-12.62-4.39-.08-.02-.28-.2-.28-.23V7.19Z"/>
  <path d="M33.88,21.71c-4.52.62-8.98,1.99-12.84,4.43l-.2-.1v-14.26c3.73-2.72,8.29-4.09,12.81-4.82l.23.13v14.62Z"/>
  <path d="M3.72,9.78l1.56.4.16.37c.3,3.72-.36,7.96,0,11.62.08.82.58.57,1.16.67,4.19.71,7.87,1.66,11.57,3.82.41.24,1.78,1.28,2.1,1.27s1.31-.84,1.69-1.07c2.92-1.77,6.5-3.04,9.85-3.7.84-.17,1.91-.18,2.7-.35.25-.05.44-.26.54-.48l.05-11.87c.02-.28,1.31-.69,1.48-.67.09.01.25.09.25.16v14.47c-1.44.59-2.97,1.06-4.46,1.55-4.01,1.31-8.07,2.59-12.1,3.81l-16.18-5.13-.38-.23v-14.62Z"/>
  <path d="M33.98,33.78c-.04.13-.22.16-.35.15-.32-.02-1.55-.46-1.97-.58-2.97-.88-5.91-1.88-8.89-2.73l-.41-.36,7.18-2.24,4.12,2.7c.08.06.31.33.31.4v2.65Z"/>
  <path d="M6.57,31.03c.1-.24.32-.35.52-.5,1.19-.89,2.6-1.65,3.82-2.51l7.18,2.29c.01.18-.17.26-.3.31-3.39,1.28-7.28,1.96-10.69,3.26l-.51.05v-2.9Z"/>
</svg>


