<?xml version="1.0" encoding="UTF-8"?>
<svg id="Layer_1" xmlns="http://www.w3.org/2000/svg" version="1.1" viewBox="0 0 800 800">
  <!-- Generator: Adobe Illustrator 29.8.3, SVG Export Plug-In . SVG Version: 2.1.1 Build 3)  -->
  <defs>
    <style>
      .st0 {
        fill: #fff;
      }
    </style>
  </defs>
  <path class="st0" d="M630,112.47H170.06c-103.63,0-152.76,127.71-75.86,197.17l122.55,110.68c19.08,17.23,31.73,40.45,35.85,65.83l25.26,155.43,1,9.51c.07,1,.18,2.2.32,3.57,6.58,63.97,59.48,100.68,113.05,100.68,37.15,0,74.62-17.66,97.16-56.14,2.22-3.78,4.14-7.07,5.74-9.81l220.77-386.11,12.22-21.26c43.35-75.45-11.11-169.56-98.13-169.56ZM685.08,257.3l-12.27,21.35-220.52,385.67-5.73,9.79c-16.1,27.49-40.95,31.59-54.32,31.59-27.88,0-59.69-17.56-63.66-56.11l-.2-2.13-.06-.77-.08-.77-1-9.51-.15-1.4-.23-1.39-25.26-155.43c-1.43-8.77-3.59-17.37-6.43-25.73-2.56-7.55.93-15.85,7.75-19.97l216.36-130.86c10.59-6.41,16.07-19.57,11.47-31.07-5.85-14.63-23.06-19.96-35.95-12.14l-230.79,139.59-13.99-14.53-122.55-110.68c-30.04-27.13-20.39-60.4-16.71-69.96,3.67-9.55,18.81-40.71,59.29-40.71h459.94c33.06,0,49.47,22.17,54.98,31.7,5.52,9.53,16.57,34.8.1,63.47Z"/>
</svg>